<svg xmlns="http://www.w3.org/2000/svg" version="1.1" xmlns:xlink="http://www.w3.org/1999/xlink" xmlns:svgjs="http://svgjs.dev/svgjs" width="1500" height="1500" viewBox="0 0 1500 1500"><rect width="1500" height="1500" fill="#ffffff"></rect><g transform="matrix(0.6666666666666666,0,0,0.6666666666666666,249.39393939393938,677.8339078045543)"><svg viewBox="0 0 396 57" data-background-color="#ffffff" preserveAspectRatio="xMidYMid meet" height="215" width="1500" xmlns="http://www.w3.org/2000/svg" xmlns:xlink="http://www.w3.org/1999/xlink"><g id="tight-bounds" transform="matrix(1,0,0,1,0.2400000000000091,0.19860875679353285)"><svg viewBox="0 0 395.52 56.60278248641294" height="56.60278248641294" width="395.52"><g><svg viewBox="0 0 475.13110851684655 67.99591117492751" height="56.60278248641294" width="395.52"><g transform="matrix(1,0,0,1,0,9.397408852685352)"><svg viewBox="0 0 395.5199999999999 49.20109346955681" height="49.20109346955681" width="395.5199999999999"><g id="textblocktransform"><svg viewBox="0 0 395.5199999999999 49.20109346955681" height="49.20109346955681" width="395.5199999999999" id="textblock"><g><svg viewBox="0 0 395.5199999999999 49.20109346955681" height="49.20109346955681" width="395.5199999999999"><g transform="matrix(1,0,0,1,0,0)"><svg width="395.5199999999999" viewBox="2.05 -35.35 362.12 45.05" height="49.20109346955681" data-palette-color="#2257bf"><path d="M21.35-5.4L21.35-1Q18.9 0.5 15.1 0.5L15.1 0.5Q9.15 0.5 5.6-3.25 2.05-7 2.05-12.6L2.05-12.6Q2.05-18.05 5.63-21.93 9.2-25.8 15.3-25.8L15.3-25.8Q18.6-25.8 21.35-24.4L21.35-24.4 21.35-19.9Q18.9-21.45 15.8-21.45L15.8-21.45Q11.85-21.45 9.47-18.95 7.1-16.45 7.1-12.55L7.1-12.55Q7.2-8.7 9.45-6.23 11.7-3.75 15.75-3.75L15.75-3.75Q18.75-3.75 21.35-5.4L21.35-5.4ZM35.2-3.65L35.2-3.65Q37.6-3.65 38.97-4.98 40.35-6.3 40.35-8.45L40.35-8.45 40.35-11.3 36.55-11.3Q33.75-11.3 32.32-10.2 30.9-9.1 30.9-7.4L30.9-7.4Q30.9-5.65 32-4.65 33.1-3.65 35.2-3.65ZM40.5 0L40.5-3Q38.55 0.2 33.65 0.2L33.65 0.2Q30.05 0.2 27.87-1.88 25.7-3.95 25.7-7.15L25.7-7.15Q25.7-10.8 28.45-12.83 31.2-14.85 36.15-14.85L36.15-14.85 40.35-14.85 40.35-16.3Q40.35-18.9 39.1-20.23 37.85-21.55 34.95-21.55L34.95-21.55Q30.9-21.55 27.6-19.3L27.6-19.3 27.6-24.05Q30.55-25.75 35.4-25.75L35.4-25.75Q45.35-25.75 45.35-16.1L45.35-16.1 45.35 0 40.5 0ZM86.8-17.05L86.8 0 81.9 0 81.9-16Q81.9-21.45 77.5-21.45L77.5-21.45Q75.3-21.45 73.57-19.5 71.84-17.55 71.84-13.75L71.84-13.75 71.84 0 66.95 0 66.95-16Q66.95-21.45 62.5-21.45L62.5-21.45Q60.35-21.45 58.6-19.5 56.85-17.55 56.85-13.75L56.85-13.75 56.85 0 51.95 0 51.95-25.35 56.85-25.35 56.85-21.3Q59-25.7 64-25.7L64-25.7Q69.7-25.7 71.3-20.8L71.3-20.8Q72.34-23.15 74.34-24.43 76.34-25.7 78.84-25.7L78.84-25.7Q82.75-25.7 84.77-23.4 86.8-21.1 86.8-17.05L86.8-17.05ZM98.34-3.85L98.34 9.7 93.44 9.7 93.44-25.35 98.34-25.35 98.34-21.45Q100.94-25.7 106.14-25.7L106.14-25.7Q111.14-25.7 114.04-22.08 116.94-18.45 116.94-12.85L116.94-12.85Q116.94-7.1 113.97-3.38 110.99 0.35 106.04 0.35L106.04 0.35Q100.99 0.35 98.34-3.85L98.34-3.85ZM98.34-12.75L98.34-12.75Q98.34-8.35 100.42-6.15 102.49-3.95 105.14-3.95L105.14-3.95Q108.09-3.95 109.99-6.28 111.89-8.6 111.89-12.8L111.89-12.8Q111.89-16.75 110.04-19.07 108.19-21.4 105.34-21.4 102.49-21.4 100.42-19.33 98.34-17.25 98.34-12.75ZM143.09-25.35L143.09 0 138.19 0 138.19-4.35Q136.19 0.3 130.29 0.3L130.29 0.3Q126.54 0.3 124.34-1.93 122.14-4.15 122.14-8.05L122.14-8.05 122.14-25.35 127.09-25.35 127.09-9.25Q127.09-6.65 128.37-5.28 129.64-3.9 131.89-3.9L131.89-3.9Q134.74-3.9 136.47-5.9 138.19-7.9 138.19-11.55L138.19-11.55 138.19-25.35 143.09-25.35ZM165.84-7L165.84-7Q165.84-3.6 163.44-1.68 161.04 0.25 156.94 0.25L156.94 0.25Q152.44 0.25 149.44-1.25L149.44-1.25 149.44-5.9Q152.94-3.75 156.69-3.75L156.69-3.75Q158.64-3.75 159.71-4.55 160.79-5.35 160.79-6.65L160.79-6.65Q160.79-7.75 159.94-8.63 159.09-9.5 158.21-9.93 157.34-10.35 155.24-11.25L155.24-11.25Q149.29-13.7 149.29-18.45L149.29-18.45Q149.29-21.8 151.79-23.7 154.29-25.6 158.04-25.6L158.04-25.6Q162.14-25.6 164.44-24.5L164.44-24.5 164.44-20.05Q161.99-21.5 158.14-21.5L158.14-21.5Q156.39-21.5 155.36-20.7 154.34-19.9 154.34-18.6L154.34-18.6Q154.34-18.25 154.41-17.93 154.49-17.6 154.69-17.28 154.89-16.95 155.06-16.73 155.24-16.5 155.64-16.25 156.04-16 156.26-15.83 156.49-15.65 157.01-15.4 157.54-15.15 157.79-15.03 158.04-14.9 158.66-14.63 159.29-14.35 159.54-14.25L159.54-14.25Q162.49-12.95 164.16-11.33 165.84-9.7 165.84-7ZM200.48-5.4L200.48-1Q198.03 0.5 194.23 0.5L194.23 0.5Q188.28 0.5 184.73-3.25 181.18-7 181.18-12.6L181.18-12.6Q181.18-18.05 184.76-21.93 188.33-25.8 194.43-25.8L194.43-25.8Q197.73-25.8 200.48-24.4L200.48-24.4 200.48-19.9Q198.03-21.45 194.93-21.45L194.93-21.45Q190.98-21.45 188.61-18.95 186.23-16.45 186.23-12.55L186.23-12.55Q186.33-8.7 188.58-6.23 190.83-3.75 194.88-3.75L194.88-3.75Q197.88-3.75 200.48-5.4L200.48-5.4ZM214.33-3.65L214.33-3.65Q216.73-3.65 218.11-4.98 219.48-6.3 219.48-8.45L219.48-8.45 219.48-11.3 215.68-11.3Q212.88-11.3 211.46-10.2 210.03-9.1 210.03-7.4L210.03-7.4Q210.03-5.65 211.13-4.65 212.23-3.65 214.33-3.65ZM219.63 0L219.63-3Q217.68 0.2 212.78 0.2L212.78 0.2Q209.18 0.2 207.01-1.88 204.83-3.95 204.83-7.15L204.83-7.15Q204.83-10.8 207.58-12.83 210.33-14.85 215.28-14.85L215.28-14.85 219.48-14.85 219.48-16.3Q219.48-18.9 218.23-20.23 216.98-21.55 214.08-21.55L214.08-21.55Q210.03-21.55 206.73-19.3L206.73-19.3 206.73-24.05Q209.68-25.75 214.53-25.75L214.53-25.75Q224.48-25.75 224.48-16.1L224.48-16.1 224.48 0 219.63 0ZM236.23-35.35L236.23 0 231.28 0 231.28-35.35 236.23-35.35ZM262.23-5.75L262.23-1.35Q259.43 0.25 254.83 0.25L254.83 0.25Q248.93 0.25 245.43-3.3 241.93-6.85 241.93-12.6L241.93-12.6Q241.93-18.7 245.13-22.18 248.33-25.65 253.28-25.65L253.28-25.65Q258.13-25.65 260.98-22.63 263.83-19.6 263.83-13.9L263.83-13.9Q263.83-12.35 263.53-10.65L263.53-10.65 246.88-10.65Q247.38-7.35 249.68-5.6 251.98-3.85 255.48-3.85L255.48-3.85Q259.53-3.85 262.23-5.75L262.23-5.75ZM253.38-21.6L253.38-21.6Q250.88-21.6 249.08-19.78 247.28-17.95 246.83-14.5L246.83-14.5 259.08-14.5 259.08-15.4Q258.98-18.25 257.53-19.93 256.08-21.6 253.38-21.6ZM290.52-17.15L290.52 0 285.62 0 285.62-16Q285.62-18.65 284.3-20.05 282.97-21.45 280.77-21.45L280.77-21.45Q278.17-21.45 276.32-19.43 274.47-17.4 274.47-13.75L274.47-13.75 274.47 0 269.57 0 269.57-25.35 274.47-25.35 274.47-21Q276.72-25.7 282.37-25.7L282.37-25.7Q286.12-25.7 288.32-23.4 290.52-21.1 290.52-17.15L290.52-17.15ZM300.77-12.45L300.77-12.45Q300.77-8.65 302.65-6.3 304.52-3.95 307.37-3.95L307.37-3.95Q310.27-3.95 312.27-6.15 314.27-8.35 314.27-12.85L314.27-12.85Q314.27-17.2 312.2-19.3 310.12-21.4 307.52-21.4L307.52-21.4Q304.57-21.4 302.67-19.07 300.77-16.75 300.77-12.45ZM319.22-35.35L319.22 0 314.27 0 314.27-3.85Q311.62 0.35 306.52 0.35L306.52 0.35Q301.52 0.35 298.62-3.43 295.72-7.2 295.72-12.55L295.72-12.55Q295.72-18.5 298.77-22.1 301.82-25.7 306.62-25.7L306.62-25.7Q311.57-25.7 314.27-21.5L314.27-21.5 314.27-35.35 319.22-35.35ZM334.32-3.65L334.32-3.65Q336.72-3.65 338.09-4.98 339.47-6.3 339.47-8.45L339.47-8.45 339.47-11.3 335.67-11.3Q332.87-11.3 331.44-10.2 330.02-9.1 330.02-7.4L330.02-7.4Q330.02-5.65 331.12-4.65 332.22-3.65 334.32-3.65ZM339.62 0L339.62-3Q337.67 0.2 332.77 0.2L332.77 0.2Q329.17 0.2 326.99-1.88 324.82-3.95 324.82-7.15L324.82-7.15Q324.82-10.8 327.57-12.83 330.32-14.85 335.27-14.85L335.27-14.85 339.47-14.85 339.47-16.3Q339.47-18.9 338.22-20.23 336.97-21.55 334.07-21.55L334.07-21.55Q330.02-21.55 326.72-19.3L326.72-19.3 326.72-24.05Q329.67-25.75 334.52-25.75L334.52-25.75Q344.47-25.75 344.47-16.1L344.47-16.1 344.47 0 339.62 0ZM355.97-13.5L355.97 0 351.07 0 351.07-25.35 355.97-25.35 355.97-20.9Q357.82-25.6 362.62-25.6L362.62-25.6Q363.32-25.6 364.17-25.45L364.17-25.45 364.17-20.65Q363.12-21.1 361.82-21.1L361.82-21.1Q359.27-21.1 357.62-18.85 355.97-16.6 355.97-13.5L355.97-13.5Z" opacity="1" transform="matrix(1,0,0,1,0,0)" fill="#000000" class="wordmark-text-0" data-fill-palette-color="primary" id="text-0"></path></svg></g></svg></g></svg></g></svg></g><g transform="matrix(1,0,0,1,407.135197341919,0)"><svg viewBox="0 0 67.99591117492751 67.99591117492751" height="67.99591117492751" width="67.99591117492751"><g data-palette-color="#2257bf"><rect width="18.585549054480186" height="67.99591117492751" fill="#000000" stroke="transparent" data-fill-palette-color="accent" x="0" fill-opacity="1"></rect><rect width="18.585549054480186" height="67.99591117492751" fill="#000000" stroke="transparent" data-fill-palette-color="accent" x="22.665303724975836" fill-opacity="0.75"></rect><rect width="18.585549054480186" height="67.99591117492751" fill="#000000" stroke="transparent" data-fill-palette-color="accent" x="45.33060744995167" fill-opacity="0.5"></rect></g></svg></g></svg></g><defs></defs></svg><rect width="395.52" height="56.60278248641294" fill="none" stroke="none" visibility="hidden"></rect></g></svg></g></svg>